<svg xmlns="http://www.w3.org/2000/svg" width="600" height="600" viewBox="0 0 600 600" version="1.1"><path d="M 260 123.436 C 240.175 126.014, 224.990 130.755, 208.061 139.654 C 182.349 153.170, 162.599 170.932, 146.437 195.074 C 131.346 217.617, 123.625 240.934, 120.865 272.299 C 118.392 300.405, 124.399 329.897, 138.199 357.396 C 153.290 387.469, 176.542 411.953, 190.047 411.990 C 192.838 411.998, 208.730 409.056, 213.403 407.666 C 213.900 407.519, 210.805 405.215, 206.525 402.548 C 185.232 389.276, 166.486 368.470, 155.968 346.433 C 140.791 314.634, 137.303 279.504, 145.962 245.649 C 155.510 208.314, 182.454 175.761, 218.500 158.006 C 239.874 147.478, 259.910 143.352, 285 144.311 C 320.500 145.668, 352.389 159.334, 376.504 183.524 C 388.941 195.999, 394.972 204.345, 402.500 219.500 C 413.569 241.780, 417.538 260.236, 416.694 285.500 C 416.138 302.150, 414.483 311.629, 409.535 326.500 C 407.705 332, 406.274 336.551, 406.354 336.614 C 406.434 336.676, 411.508 336.979, 417.628 337.288 L 428.756 337.848 431.428 327.904 C 439.733 296.998, 440.093 266.693, 432.488 238.500 C 419.386 189.922, 380.349 148.381, 331.500 131.035 C 310.026 123.410, 282.613 120.496, 260 123.436 M 331 192.886 C 321.321 196.030, 314.198 202.370, 309.735 211.815 C 307.028 217.544, 306.793 218.844, 307.212 225.815 C 308.904 254.026, 340.929 267.626, 361.467 248.856 C 369.181 241.806, 372.337 234.956, 372.420 225.089 C 372.476 218.375, 372.077 216.599, 369.200 210.755 C 363.452 199.078, 353.687 192.689, 341 192.303 C 336.875 192.177, 332.375 192.440, 331 192.886 M 332.500 209.167 C 319.588 216.308, 319.447 233.681, 332.250 239.879 C 337.594 242.466, 341.242 242.528, 346.541 240.120 C 354.082 236.695, 358.114 229.321, 356.596 221.731 C 355.643 216.965, 351.632 211.528, 347.688 209.656 C 343.729 207.778, 335.492 207.512, 332.500 209.167 M 169 289.294 C 164.090 291.778, 163.672 294.665, 166.445 306.950 C 167.819 313.037, 170.139 321.050, 171.600 324.758 C 179.905 345.835, 197.881 365.872, 217.225 375.613 C 225.063 379.560, 226.797 379.734, 230.365 376.927 C 232.375 375.346, 233 373.965, 233 371.102 C 233 366.590, 231.285 364.846, 221.632 359.543 C 217.855 357.468, 211.386 352.561, 207.257 348.639 C 193.961 336.009, 186.818 323.912, 182.967 307.500 C 178.985 290.532, 179.165 290.967, 175.469 289.422 C 171.418 287.730, 172.067 287.743, 169 289.294 M 391.589 354.034 C 360.860 357.529, 325.459 371.582, 284.500 396.546 C 257.167 413.204, 236.436 422.081, 213.264 427.045 C 199.381 430.020, 172.997 430.772, 159.609 428.574 C 140.526 425.443, 123.198 419.395, 109.548 411.102 C 105.834 408.846, 102.587 407, 102.331 407 C 101.042 407, 112.802 420.642, 122.579 430.488 C 140.919 448.959, 161.612 462.957, 181.500 470.347 C 224.437 486.301, 266.250 482.420, 315.139 457.942 C 320.837 455.089, 337.875 445.305, 353 436.201 C 381.664 418.946, 394.355 412.392, 409.500 407.021 C 438.198 396.844, 467.672 395.253, 494.555 402.432 L 502.893 404.659 500.745 401.579 C 494.117 392.078, 472.394 373.475, 459.933 366.629 C 440.900 356.173, 414.904 351.382, 391.589 354.034" stroke="none" fill="#0f89c9" fill-rule="evenodd"/><path d="M 92 300 L 92 505 299.500 505 L 507 505 507 300 L 507 95 299.500 95 L 92 95 92 300 M 260 123.436 C 240.175 126.014, 224.990 130.755, 208.061 139.654 C 182.349 153.170, 162.599 170.932, 146.437 195.074 C 131.346 217.617, 123.625 240.934, 120.865 272.299 C 118.392 300.405, 124.399 329.897, 138.199 357.396 C 153.290 387.469, 176.542 411.953, 190.047 411.990 C 192.838 411.998, 208.730 409.056, 213.403 407.666 C 213.900 407.519, 210.805 405.215, 206.525 402.548 C 185.232 389.276, 166.486 368.470, 155.968 346.433 C 140.791 314.634, 137.303 279.504, 145.962 245.649 C 155.510 208.314, 182.454 175.761, 218.500 158.006 C 239.874 147.478, 259.910 143.352, 285 144.311 C 320.500 145.668, 352.389 159.334, 376.504 183.524 C 388.941 195.999, 394.972 204.345, 402.500 219.500 C 413.569 241.780, 417.538 260.236, 416.694 285.500 C 416.138 302.150, 414.483 311.629, 409.535 326.500 C 407.705 332, 406.274 336.551, 406.354 336.614 C 406.434 336.676, 411.508 336.979, 417.628 337.288 L 428.756 337.848 431.428 327.904 C 439.733 296.998, 440.093 266.693, 432.488 238.500 C 419.386 189.922, 380.349 148.381, 331.500 131.035 C 310.026 123.410, 282.613 120.496, 260 123.436 M 331 192.886 C 321.321 196.030, 314.198 202.370, 309.735 211.815 C 307.028 217.544, 306.793 218.844, 307.212 225.815 C 308.904 254.026, 340.929 267.626, 361.467 248.856 C 369.181 241.806, 372.337 234.956, 372.420 225.089 C 372.476 218.375, 372.077 216.599, 369.200 210.755 C 363.452 199.078, 353.687 192.689, 341 192.303 C 336.875 192.177, 332.375 192.440, 331 192.886 M 332.500 209.167 C 319.588 216.308, 319.447 233.681, 332.250 239.879 C 337.594 242.466, 341.242 242.528, 346.541 240.120 C 354.082 236.695, 358.114 229.321, 356.596 221.731 C 355.643 216.965, 351.632 211.528, 347.688 209.656 C 343.729 207.778, 335.492 207.512, 332.500 209.167 M 169 289.294 C 164.090 291.778, 163.672 294.665, 166.445 306.950 C 167.819 313.037, 170.139 321.050, 171.600 324.758 C 179.905 345.835, 197.881 365.872, 217.225 375.613 C 225.063 379.560, 226.797 379.734, 230.365 376.927 C 232.375 375.346, 233 373.965, 233 371.102 C 233 366.590, 231.285 364.846, 221.632 359.543 C 217.855 357.468, 211.386 352.561, 207.257 348.639 C 193.961 336.009, 186.818 323.912, 182.967 307.500 C 178.985 290.532, 179.165 290.967, 175.469 289.422 C 171.418 287.730, 172.067 287.743, 169 289.294 M 391.589 354.034 C 360.860 357.529, 325.459 371.582, 284.500 396.546 C 257.167 413.204, 236.436 422.081, 213.264 427.045 C 199.381 430.020, 172.997 430.772, 159.609 428.574 C 140.526 425.443, 123.198 419.395, 109.548 411.102 C 105.834 408.846, 102.587 407, 102.331 407 C 101.042 407, 112.802 420.642, 122.579 430.488 C 140.919 448.959, 161.612 462.957, 181.500 470.347 C 224.437 486.301, 266.250 482.420, 315.139 457.942 C 320.837 455.089, 337.875 445.305, 353 436.201 C 381.664 418.946, 394.355 412.392, 409.500 407.021 C 438.198 396.844, 467.672 395.253, 494.555 402.432 L 502.893 404.659 500.745 401.579 C 494.117 392.078, 472.394 373.475, 459.933 366.629 C 440.900 356.173, 414.904 351.382, 391.589 354.034" stroke="none" fill="#fbfbfb" fill-rule="evenodd"/></svg>